# xmcd
#
# Track frame offsets: 
#        150
#        14467
#        23502
#        37065
#        48885
#        61414
#        75660
#        85972
#        98550
#        110435
#        123727
#        134930
#        145155
#        158615
#        171030
#        184242
#        196732
#        211680
#
# Disc length: 2980 seconds
#
# Revision: 4
# Processed by: cddbd v1.5.2PL0 Copyright (c) Steve Scherf et al.
# Submitted via: ExactAudioCopy v0.99pb4
#
DISCID=ef0ba212
DTITLE=The Four Aces - MCA-Greatest Hits
DYEAR=1993
DGENRE=Classic Rock
TTITLE0=Tell Me Why
TTITLE1=Perfidia
TTITLE2=Three Coins In The Fountain
TTITLE3=A Garden In The Rain
TTITLE4=You Brought Me Love
TTITLE5=(It's No) Sin
TTITLE6=Heart And Soul
TTITLE7=I'm Yours
TTITLE8=I Understand
TTITLE9=Stranger In Paradise
TTITLE10=The Gang That Sang ''Heart Of My Heart''
TTITLE11=Should I
TTITLE12=Love Is A Many Splendored Thing
TTITLE13=Heart
TTITLE14=It's A Womens World
TTITLE15=Melody Of Love
TTITLE16=A Woman In Love
TTITLE17=Mister Sandman
EXTD=
EXTT0=
EXTT1=
EXTT2=
EXTT3=
EXTT4=
EXTT5=
EXTT6=
EXTT7=
EXTT8=
EXTT9=
EXTT10=
EXTT11=
EXTT12=
EXTT13=
EXTT14=
EXTT15=
EXTT16=
EXTT17=
PLAYORDER=
